<svg id="visual" viewBox="0 0 900 600" width="900" height="600" xmlns="http://www.w3.org/2000/svg" xmlns:xlink="http://www.w3.org/1999/xlink" version="1.1"><rect x="0" y="0" width="900" height="600" fill="#FFFFFF"></rect><path d="M0 458L30 440C60 422 120 386 180 359.8C240 333.7 300 317.3 360 331.5C420 345.7 480 390.3 540 415.3C600 440.3 660 445.7 720 429.3C780 413 840 375 870 356L900 337L900 601L870 601C840 601 780 601 720 601C660 601 600 601 540 601C480 601 420 601 360 601C300 601 240 601 180 601C120 601 60 601 30 601L0 601Z" fill="#bdcbeb" stroke-linecap="round" stroke-linejoin="miter"></path></svg>